<svg version="1.1" xmlns="http://www.w3.org/2000/svg" width="1024" height="1024">
<path d="M0 0 C337.92 0 675.84 0 1024 0 C1024 337.92 1024 675.84 1024 1024 C686.08 1024 348.16 1024 0 1024 C0 686.08 0 348.16 0 0 Z " fill="#FEFEFE" transform="translate(0,0)"/>
<path d="M0 0 C2.25 0.25 2.25 0.25 4 1 C4.664 2.73 4.664 2.73 5 5 C3.961 7.113 3.961 7.113 2.375 9.312 C1.549 10.49 1.549 10.49 0.707 11.691 C-0.358 13.132 -1.441 14.559 -2.551 15.965 C-5.276 19.263 -5.276 19.263 -5.84 23.328 C-1.361 37.576 14.455 56.278 27 64 C29.147 64.151 29.147 64.151 31.25 63.688 C33.106 63.347 33.106 63.347 35 63 C35.812 65.188 35.812 65.188 36 68 C33.938 70.812 33.938 70.812 31 73 C24.747 73.733 21.878 71.3 17.09 67.629 C10.366 62.062 2.662 55.446 -2 48 C-2 47.01 -2 46.02 -2 45 C-2.66 45 -3.32 45 -4 45 C-3.67 63.81 -3.34 82.62 -3 102 C2.28 99.03 7.56 96.06 13 93 C27.323 86.232 43.231 81.697 59 80 C59 79.34 59 78.68 59 78 C58.319 77.381 57.639 76.762 56.938 76.125 C56.298 75.424 55.659 74.722 55 74 C55.25 71.75 55.25 71.75 56 70 C58.125 69.188 58.125 69.188 61 69 C63.301 70.444 65.016 72.109 67 74 C80.741 68.933 95.411 60.025 104 48 C106.106 41.682 105.16 36.764 102.668 30.832 C101.817 28.499 101.769 26.459 102 24 C103.65 23.67 105.3 23.34 107 23 C109.674 25.951 111.097 28.186 112 32 C113.002 34.827 113.649 35.791 116.258 37.344 C118.286 38.162 120.331 38.938 122.387 39.684 C170.721 57.293 210.595 92.516 234.252 137.666 C237.288 143.458 240.358 149.231 243.438 155 C243.909 155.883 243.909 155.883 244.39 156.783 C257.11 180.572 270.608 204.411 286.571 226.194 C301.857 247.196 312.225 269.036 312.312 295.25 C312.315 296.018 312.318 296.786 312.321 297.578 C312.331 308.906 311.718 319.183 308 330 C307.727 330.839 307.453 331.678 307.172 332.543 C306.698 333.966 306.207 335.383 305.695 336.793 C304.837 339.517 304.353 342.259 303.812 345.062 C299.768 363.072 287.549 381.034 272.578 391.73 C266.829 395.111 261.229 397.015 254.539 396.984 C244.009 397.026 237.965 399.791 229.164 405.41 C219.003 411.882 208.23 415.935 196 414 C193.957 413.086 193.957 413.086 192.312 412 C188.089 409.45 185.316 409.913 180.512 410.129 C177.039 409.951 175.539 408.249 173 406 C169.757 406.136 169.757 406.136 167 407 C172.146 421.762 177.999 436.177 184.834 450.234 C188.088 456.998 190.683 463.862 193 471 C197.214 471 198.864 469.775 202 467 C202.515 463.975 202.708 461.634 202.625 458.625 C202.519 452.497 202.884 448.943 207 444 C209.853 442.573 211.835 442.69 215 443 C219.687 445.913 221.319 449.328 223.062 454.375 C225.869 462.269 228.862 468.446 236.664 472.324 C237.641 472.774 238.618 473.224 239.625 473.688 C245.825 476.754 250.866 480.387 256 485 C256.908 485.813 257.815 486.627 258.75 487.465 C272.244 500.227 283.561 518.737 285.336 537.562 C285.433 546.108 284.864 551.432 279.328 557.977 C263.529 573.837 238.929 577.249 217.642 577.383 C212.848 577.385 208.055 577.356 203.262 577.273 C202.558 577.263 201.853 577.252 201.128 577.241 C196.243 577.121 196.243 577.121 194 576 C192.045 575.705 190.086 575.439 188.125 575.188 C174.406 573.109 158.225 568.161 149.234 556.992 C144.408 549.202 144.728 538.712 146.403 529.875 C148.632 521.073 152.616 514.038 157 506 C148.09 506 139.18 506 130 506 C131.258 508.599 132.516 511.197 133.812 513.875 C139.407 525.769 143.052 536.673 141 550 C139.639 553.759 137.833 556.208 135 559 C134.381 559.62 133.763 560.24 133.125 560.879 C124.391 568.538 112.054 572.089 101 575 C100.36 575.182 99.72 575.365 99.06 575.553 C90.701 577.597 82.184 577.266 73.638 577.206 C70.913 577.187 68.188 577.185 65.463 577.186 C63.734 577.181 62.006 577.175 60.277 577.168 C59.461 577.167 58.644 577.166 57.803 577.165 C52.116 577.116 52.116 577.116 51 576 C49.297 575.686 47.592 575.378 45.883 575.1 C31.311 572.708 16.593 567.75 6 557 C5.67 556.34 5.34 555.68 5 555 C4.196 555.969 3.391 556.939 2.562 557.938 C-7.159 567.6 -20.894 572.226 -34 575 C-34.614 575.174 -35.227 575.349 -35.86 575.529 C-43.592 577.601 -51.496 577.352 -59.438 577.312 C-60.575 577.31 -60.575 577.31 -61.736 577.307 C-83.624 577.218 -109.576 574.738 -126.305 558.855 C-132.078 552.536 -132.693 546.475 -132.449 538.008 C-131.487 526.928 -126.223 516.639 -121 507 C-121.713 507.035 -122.426 507.07 -123.16 507.105 C-129.311 507.279 -133.554 506.905 -139 504 C-139.113 505.167 -139.227 506.333 -139.344 507.535 C-139.872 511.707 -140.988 515.521 -142.5 519.438 C-142.76 520.116 -143.02 520.795 -143.288 521.495 C-148.102 533.652 -154.098 545.331 -163 555 C-163.771 555.851 -164.542 556.702 -165.336 557.578 C-178.668 571.625 -195.081 577.772 -214.059 579.676 C-217.056 579.902 -217.056 579.902 -220 581 C-224.371 581.237 -228.748 581.185 -233.125 581.188 C-234.324 581.2 -235.523 581.212 -236.758 581.225 C-242.772 581.235 -248.301 581.001 -254.131 579.484 C-256.625 578.838 -259.133 578.563 -261.688 578.25 C-280.978 575.043 -297.379 562.459 -308.562 546.875 C-321.875 527.182 -330.973 504.404 -331.438 480.438 C-331.46 479.687 -331.482 478.937 -331.506 478.164 C-331.483 472.997 -330.418 470.072 -327 466 C-306.908 447.011 -260.696 452.453 -235.176 452.667 C-231.3 452.695 -227.424 452.703 -223.549 452.711 C-218.904 452.721 -214.258 452.74 -209.613 452.762 C-208.737 452.765 -207.86 452.769 -206.957 452.772 C-204.496 452.784 -202.036 452.802 -199.575 452.823 C-198.848 452.826 -198.12 452.828 -197.371 452.831 C-194.309 452.864 -191.928 453.024 -189 454 C-186.226 454.183 -183.464 454.324 -180.688 454.438 C-151.793 455.858 -151.793 455.858 -143 463 C-143.66 464.32 -144.32 465.64 -145 467 C-152.291 467.225 -159.395 466.98 -166.625 466.062 C-167.311 465.976 -167.998 465.889 -168.705 465.799 C-171.601 465.409 -174.22 464.927 -177 464 C-194.182 461.866 -211.577 461.703 -228.864 461.794 C-232.461 461.813 -236.057 461.815 -239.654 461.814 C-266.527 461.839 -266.527 461.839 -293.188 464.875 C-294.728 465.117 -294.728 465.117 -296.299 465.363 C-302.432 466.374 -308.177 467.82 -314 470 C-303.804 480.196 -268.223 476.215 -254.511 476.233 C-249.859 476.233 -245.207 476.216 -240.554 476.196 C-237.373 476.185 -234.192 476.185 -231.01 476.186 C-227.909 476.185 -224.807 476.18 -221.706 476.173 C-220.243 476.17 -218.781 476.168 -217.318 476.167 C-210.176 476.159 -203.111 476.056 -196.008 475.232 C-193.597 474.953 -191.199 474.83 -188.773 474.754 C-187.895 474.723 -187.017 474.691 -186.112 474.659 C-185.209 474.627 -184.305 474.595 -183.375 474.562 C-159.618 474.457 -159.618 474.457 -139 465 C-138.619 462.465 -138.338 459.987 -138.113 457.438 C-137.184 448.422 -135.34 439.792 -133.188 431 C-132.826 429.495 -132.465 427.989 -132.104 426.484 C-130.018 417.841 -127.771 409.272 -125.141 400.777 C-123.825 396.421 -122.69 392.033 -121.562 387.625 C-119.685 380.34 -117.545 373.173 -115.24 366.013 C-113.273 359.906 -111.429 353.769 -109.648 347.605 C-108.773 344.585 -107.863 341.644 -106.734 338.707 C-106.371 337.367 -106.371 337.367 -106 336 C-106.99 334.515 -106.99 334.515 -108 333 C-108.428 318.967 -105.508 303.237 -101 290 C-101 289.67 -101 289.34 -101 289 C-111.342 290.606 -120.976 293.11 -130.844 296.598 C-139.705 299.626 -147.381 300.365 -156.75 300.375 C-157.949 300.399 -159.148 300.424 -160.383 300.449 C-172.586 300.489 -182.324 297.431 -192 290 C-192.615 289.56 -193.23 289.121 -193.863 288.668 C-205.23 279.923 -211.521 264.241 -213.632 250.415 C-214.326 243.974 -214.299 237.532 -214.25 231.062 C-214.247 230.339 -214.244 229.616 -214.241 228.87 C-214.05 190.897 -207.037 157.833 -180.625 129.188 C-169.2 116.664 -160.151 102.763 -151.397 88.303 C-133.047 58.056 -104.401 40.478 -71 30 C-70.253 29.766 -69.507 29.531 -68.737 29.29 C-50.79 23.75 -31.887 18.406 -13 18 C-12.74 17.269 -12.479 16.538 -12.211 15.785 C-10.972 12.935 -9.556 10.862 -7.625 8.438 C-7.04 7.694 -6.455 6.95 -5.852 6.184 C-3.989 3.987 -2.151 1.918 0 0 Z " fill="#040404" transform="translate(440,354)"/>
<path d="M0 0 C2.277 1.703 2.277 1.703 4.086 3.969 C6.28 6.103 6.28 6.103 9.844 5.469 C10.54 5.342 11.236 5.215 11.954 5.084 C16.342 4.365 20.778 4.477 25.215 4.453 C26.622 4.422 26.622 4.422 28.057 4.391 C34.363 4.356 39.451 5.305 45.277 7.703 C46.185 8.068 47.092 8.433 48.027 8.809 C54.373 11.86 62.016 16.18 65.277 22.703 C67.178 22.777 67.178 22.777 69.117 22.852 C70.816 22.927 72.516 23.002 74.215 23.078 C75.046 23.109 75.876 23.14 76.732 23.172 C91.758 23.873 103.991 28.553 115.277 38.703 C118.397 42.148 120.906 45.711 123.277 49.703 C123.805 50.571 124.332 51.438 124.875 52.332 C130.003 62.375 130.496 76.087 127.168 86.852 C120.296 103.883 107.69 113.572 91.277 120.703 C87.751 121.908 84.363 121.837 80.652 121.828 C78.931 121.832 78.931 121.832 77.176 121.836 C74.277 121.703 74.277 121.703 72.277 120.703 C71.906 122.436 71.906 122.436 71.527 124.203 C68.575 137.354 64.988 150.197 61.008 163.07 C59.499 167.953 58.065 172.854 56.652 177.766 C54.503 185.196 51.977 192.454 49.277 199.703 C49.857 199.657 50.438 199.61 51.035 199.562 C56.687 199.301 59.87 199.808 64.277 203.703 C67.626 207.316 68.574 210.143 68.777 214.953 C68.286 226.314 62.165 235.507 54.484 243.59 C49.396 248.212 43.815 251.928 36.777 251.953 C35.622 251.871 34.467 251.788 33.277 251.703 C33.156 252.411 33.035 253.119 32.91 253.848 C29.362 269.86 18.64 283.161 5.09 291.953 C-9.964 300.826 -26.293 304.106 -43.543 301.02 C-53.406 298.156 -62.14 293.258 -70.164 286.902 C-71.725 285.622 -71.725 285.622 -73.723 284.703 C-72.682 295.072 -68.115 299.847 -60.41 306.391 C-56.546 309.737 -53.397 313.36 -50.285 317.391 C-49.647 318.211 -49.647 318.211 -48.997 319.048 C-46.676 322.131 -44.964 325.046 -43.723 328.703 C-40.143 327.354 -36.899 325.756 -33.59 323.84 C-32.618 323.282 -31.646 322.725 -30.645 322.15 C-28.636 320.99 -26.628 319.829 -24.621 318.666 C-7.235 308.703 -7.235 308.703 -2.723 308.703 C-2.434 308.084 -2.145 307.466 -1.848 306.828 C-0.723 304.703 -0.723 304.703 1.277 302.703 C3.402 303.078 3.402 303.078 5.277 303.703 C5.355 307.435 5.096 309.631 2.805 312.633 C-2.42 317.646 -8.372 320.815 -14.766 324.051 C-24.85 329.192 -34.312 335.43 -43.723 341.703 C-46.188 341.75 -46.188 341.75 -48.723 340.703 C-50.131 338.438 -51.206 336.367 -52.285 333.953 C-56.433 325.471 -62.042 319.28 -68.723 312.703 C-69.201 312.23 -69.68 311.756 -70.173 311.269 C-71.522 309.934 -72.873 308.6 -74.223 307.266 C-80.109 301.436 -84.668 295.836 -85.098 287.266 C-85.037 282.708 -83.272 280.443 -80.723 276.703 C-81.779 273.122 -83.584 270.198 -85.598 267.078 C-92.818 255.209 -95.086 242.802 -94.848 229.078 C-94.839 228.074 -94.83 227.07 -94.82 226.035 C-94.797 223.591 -94.764 221.147 -94.723 218.703 C-95.812 218.115 -96.901 217.528 -98.023 216.922 C-105.689 212.523 -108.415 205.732 -110.961 197.535 C-113.576 187.813 -114.428 177.252 -110.137 167.898 C-107.333 163.546 -103.356 160.02 -98.723 157.703 C-95.722 157.568 -92.726 157.66 -89.723 157.703 C-89.744 156.904 -89.765 156.105 -89.786 155.281 C-89.902 147.538 -89.249 140.317 -87.91 132.703 C-85.545 118.421 -84.08 104.112 -82.723 89.703 C-83.314 89.596 -83.905 89.488 -84.513 89.378 C-91.632 87.964 -96.054 85.198 -101.723 80.703 C-102.437 80.154 -103.151 79.605 -103.887 79.039 C-112.854 71.734 -119.883 61.251 -121.723 49.703 C-122.765 37.773 -120.579 28.643 -113.473 18.953 C-104.475 8.279 -91.823 -1.136 -77.458 -2.514 C-74.938 -2.637 -72.433 -2.675 -69.91 -2.672 C-69.024 -2.674 -68.139 -2.676 -67.226 -2.678 C-61.457 -2.588 -56.822 -1.92 -51.695 0.926 C-47.563 2.554 -43.533 0.331 -39.66 -1.297 C-27.316 -6.47 -11.705 -6.806 0 0 Z " fill="#040404" transform="translate(532.72265625,77.296875)"/>
<path d="M0 0 C5.638 1.128 5.638 1.128 8.68 2.715 C9.353 3.066 10.027 3.417 10.721 3.779 C11.787 4.352 11.787 4.352 12.875 4.938 C13.622 5.338 14.37 5.738 15.14 6.151 C32.63 15.688 48.205 27.887 62.567 41.635 C63.852 42.859 65.155 44.064 66.461 45.266 C79.194 57.329 86.9 72.681 95 88 C97.453 92.607 99.913 97.21 102.375 101.812 C102.691 102.403 103.007 102.993 103.332 103.602 C116.49 128.179 130.094 152.385 146.07 175.266 C162.576 199.032 176.415 223.931 171.528 253.892 C171.055 256.272 170.553 258.638 170 261 C167.459 258.459 166.746 256.038 165.438 252.688 C157.801 234.155 144.962 221.934 127.008 213.613 C120.901 211.148 115.555 210.488 109 211 C108.67 212.65 108.34 214.3 108 216 C111.364 217.207 114.617 218.124 118.125 218.75 C133.376 222.082 145.317 232.568 153.861 245.191 C161.067 256.64 167.501 271.231 164.593 284.917 C161.935 295.944 158.466 307.044 150 315 C150.165 313.763 150.33 312.525 150.5 311.25 C151.737 298.287 152.7 285.02 147 273 C146.479 271.9 145.958 270.801 145.422 269.668 C142.338 263.59 139.049 258.378 134.285 253.488 C133 252 133 252 133 250 C132.424 249.738 131.848 249.477 131.254 249.207 C128.86 247.925 127.012 246.436 124.938 244.688 C120.012 240.78 114.801 238.347 109 236 C108.151 235.648 107.301 235.296 106.426 234.934 C92.505 229.576 75.347 231.068 61 234 C65.558 219.836 77.302 214.63 89.625 207.625 C90.764 206.972 91.903 206.318 93.077 205.645 C98.047 202.799 103.027 199.974 108.039 197.203 C108.764 196.801 109.489 196.4 110.236 195.986 C111.522 195.277 112.811 194.573 114.104 193.877 C118.179 191.637 121.519 189.049 125 186 C117.853 186.43 112.363 188.757 105.938 191.812 C104.897 192.3 103.856 192.787 102.784 193.288 C71.527 205.94 71.527 205.94 49 229 C48.833 232 48.833 232 49 235 C49 236.32 49 237.64 49 239 C46.91 240.824 46.91 240.824 44.062 242.688 C39.09 246.097 35.042 249.78 30.973 254.215 C28.92 256.072 27.704 256.619 25 257 C26.641 241.055 26.641 241.055 28.625 233.25 C31.429 220.907 30.722 207.798 28.49 195.421 C26.575 182.042 28.508 170.984 33.062 158.438 C33.599 156.901 34.134 155.363 34.667 153.825 C36.399 148.867 38.193 143.932 40 139 C40.318 138.129 40.637 137.259 40.964 136.362 C44.438 126.87 47.964 117.398 51.555 107.949 C51.843 107.188 52.132 106.427 52.43 105.643 C53.829 101.977 55.264 98.333 56.778 94.713 C57.059 94.036 57.34 93.359 57.63 92.661 C58.39 90.84 59.163 89.025 59.938 87.21 C61.023 83.93 61.212 81.428 61 78 C57.569 79.144 57.145 80.051 55.553 83.147 C55.247 83.779 54.941 84.411 54.625 85.062 C54.12 86.092 54.12 86.092 53.605 87.142 C40.087 115.464 23.906 149.789 20 181 C19.34 181 18.68 181 18 181 C12.116 165.801 12.617 151.53 13.178 135.44 C13.748 117.598 12.122 102.111 4 86 C4.268 82.874 5.202 81.698 7 79 C7.527 75.049 7.178 73.313 5.188 69.812 C3.167 67.094 3.167 67.094 1.25 65.25 C0.837 64.837 0.425 64.425 0 64 C0 63.34 0 62.68 0 62 C0.804 61.443 1.609 60.886 2.438 60.312 C5.265 58.154 5.265 58.154 6.062 54.625 C5.986 50.19 4.806 48.368 2 45 C1.34 44.67 0.68 44.34 0 44 C0 29.48 0 14.96 0 0 Z " fill="#FEFEFE" transform="translate(572,409)"/>
<path d="M0 0 C0.898 8.157 1.16 16.223 1.168 24.426 C1.171 25.69 1.175 26.954 1.178 28.256 C1.183 30.923 1.186 33.589 1.185 36.256 C1.185 40.263 1.206 44.269 1.225 48.275 C1.252 60.121 1.155 71.92 0.176 83.73 C0.106 84.637 0.037 85.543 -0.034 86.476 C-0.114 87.3 -0.194 88.124 -0.276 88.973 C-0.343 89.684 -0.41 90.395 -0.479 91.127 C-1.141 93.508 -2.057 94.498 -4 96 C-6.891 96.258 -6.891 96.258 -10.25 96.125 C-15.005 96.008 -19.331 96.131 -24 97 C-23.838 96.037 -23.675 95.074 -23.508 94.082 C-22.871 89.613 -22.853 85.194 -22.875 80.688 C-22.871 79.877 -22.867 79.067 -22.863 78.232 C-22.754 73.982 -22.754 73.982 -24 70 C-25.65 70 -27.3 70 -29 70 C-29.038 70.953 -29.038 70.953 -29.076 71.924 C-29.193 74.825 -29.315 77.725 -29.438 80.625 C-29.477 81.624 -29.516 82.623 -29.557 83.652 C-29.766 88.51 -30.03 93.221 -31 98 C-31.99 98 -32.98 98 -34 98 C-34.366 97.075 -34.733 96.15 -35.111 95.196 C-43.672 73.304 -43.672 73.304 -54.062 52.25 C-54.49 51.479 -54.918 50.709 -55.359 49.915 C-59.695 41.953 -59.695 41.953 -66.812 37.125 C-67.534 37.084 -68.256 37.043 -69 37 C-69.795 38.765 -69.795 38.765 -70 41 C-68.786 43.311 -68.786 43.311 -66.93 45.586 C-63.147 50.715 -60.063 55.976 -57.125 61.625 C-56.616 62.6 -56.107 63.576 -55.583 64.581 C-42 91.296 -42 91.296 -42 101 C-42.544 101.141 -43.088 101.282 -43.649 101.427 C-46.142 102.074 -48.633 102.725 -51.125 103.375 C-51.981 103.597 -52.837 103.818 -53.719 104.047 C-57.334 104.992 -60.884 105.96 -64.422 107.168 C-71.055 109.309 -77.049 105.809 -83.07 103.211 C-89.052 100.738 -94.542 99.731 -101 100 C-101.33 101.65 -101.66 103.3 -102 105 C-98.082 106.415 -94.183 107.408 -90.125 108.312 C-84.56 109.659 -80.648 111.693 -76 115 C-76.627 117.849 -77.535 120.259 -78.812 122.875 C-91.953 152.263 -90.972 193.152 -79.688 222.938 C-77.056 229.412 -73.877 234.925 -69 240 C-68.523 240.53 -68.046 241.06 -67.555 241.605 C-65.404 243.904 -64.035 244.988 -61 246 C-61 246.66 -61 247.32 -61 248 C-62.021 248.135 -63.042 248.271 -64.094 248.41 C-76.603 250.214 -88.459 253.542 -100.515 257.292 C-111.996 260.565 -127.848 261.278 -138.824 256.254 C-151.977 248.674 -160.369 237.359 -164.641 222.816 C-166.693 214.214 -166.502 205.542 -166.438 196.75 C-166.434 195.865 -166.431 194.979 -166.427 194.067 C-166.236 159.342 -158.825 129.729 -135.419 103.601 C-131.801 99.521 -128.399 95.262 -125 91 C-124.331 90.174 -123.662 89.347 -122.973 88.496 C-116.873 80.693 -111.733 72.34 -106.58 63.892 C-90.494 37.665 -70.877 21.956 -42 11 C-40.947 10.586 -39.894 10.172 -38.809 9.746 C-31.484 6.988 -24.035 4.788 -16.5 2.688 C-15.556 2.421 -14.612 2.154 -13.639 1.879 C-8.986 0.615 -4.87 -0.349 0 0 Z " fill="#FEFEFE" transform="translate(401,386)"/>
<path d="M0 0 C4.312 -0.059 8.625 -0.094 12.938 -0.125 C14.15 -0.142 15.362 -0.159 16.611 -0.176 C22.67 -0.209 28.264 -0.067 34.129 1.53 C36.12 2.03 38.018 2.229 40.062 2.375 C62.763 4.661 85.45 14.729 106 24 C105.409 29.707 104.341 34.993 102.75 40.5 C102.528 41.284 102.306 42.068 102.078 42.876 C100.47 48.509 98.734 54.095 96.946 59.673 C95.12 65.445 93.559 71.277 92 77.125 C86.535 97.385 80.345 116.132 61.25 127.312 C47.766 134.729 32.569 137.914 17.438 133.812 C15.939 133.257 14.458 132.654 13 132 C11.888 131.507 11.888 131.507 10.754 131.004 C4.255 127.749 -0.846 123.062 -6 118 C-6.714 117.31 -7.428 116.621 -8.164 115.91 C-17.209 106.533 -24.395 92.438 -24.314 79.212 C-24.293 78.441 -24.272 77.67 -24.25 76.875 C-24.235 75.654 -24.235 75.654 -24.219 74.409 C-24.105 67.824 -23.688 61.271 -23.121 54.711 C-23.081 53.816 -23.041 52.922 -23 52 C-24.037 50.734 -24.037 50.734 -26.312 50.938 C-27.199 50.958 -28.086 50.979 -29 51 C-33 51 -33 51 -35.5 48.625 C-40.695 41.661 -42.369 34.879 -42.5 26.312 C-42.528 25.244 -42.528 25.244 -42.556 24.153 C-42.492 18.718 -41.103 15.468 -38 11 C-34.25 8.5 -32.441 8.464 -28 9 C-25.37 11.173 -23.527 12.947 -22 16 C-21.916 17.521 -21.893 19.047 -21.902 20.57 C-21.906 21.466 -21.909 22.362 -21.912 23.285 C-21.92 24.222 -21.929 25.159 -21.938 26.125 C-21.942 27.07 -21.947 28.015 -21.951 28.988 C-21.963 31.326 -21.979 33.663 -22 36 C-19.126 36.334 -19.126 36.334 -16 36 C-12.888 33.135 -11.893 29.311 -10.562 25.375 C-7.526 16.61 -4.202 8.266 0 0 Z " fill="#FEFEFE" transform="translate(471,235)"/>
<path d="M0 0 C1.354 1.206 2.686 2.437 4 3.688 C6.796 6.307 8.436 7.479 12.312 7.5 C15.934 7.125 15.934 7.125 19 6 C22.058 5.773 25.122 5.815 28.188 5.812 C29.013 5.8 29.839 5.788 30.689 5.775 C41.703 5.749 51.552 8.867 59.703 16.547 C66 23.398 66 23.398 66 26 C66.991 25.844 67.983 25.688 69.004 25.527 C83.422 23.498 96.789 24.621 109.012 33.086 C117.135 40.007 124.272 49.138 125.281 60.039 C125.621 72.137 122.542 81.466 115 91 C108.159 97.739 98.563 103.802 88.766 104.098 C87.605 104.086 86.445 104.074 85.25 104.062 C84.08 104.053 82.909 104.044 81.703 104.035 C80.365 104.018 80.365 104.018 79 104 C78.792 103.443 78.585 102.886 78.371 102.312 C75.889 96.164 72.602 91.744 68 87 C72.225 83.428 76.771 80.7 81.623 78.088 C83.563 77.018 83.563 77.018 86 75 C86.518 72.327 86.518 72.327 86 70 C80.41 70.501 76.492 72.663 71.75 75.438 C71.031 75.845 70.311 76.253 69.57 76.674 C65.529 78.989 65.529 78.989 62 82 C57.546 81.673 53.833 79.591 49.938 77.562 C49.326 77.25 48.714 76.937 48.084 76.615 C46.387 75.748 44.693 74.874 43 74 C41.668 73.331 40.335 72.663 39 72 C40.664 66.334 43.326 61.559 46.254 56.479 C48.276 52.839 49.499 50.195 49 46 C46.597 46.122 46.597 46.122 44 47 C42.218 49.143 42.218 49.143 40.887 51.91 C40.361 52.9 39.836 53.889 39.295 54.908 C38.764 55.949 38.234 56.99 37.688 58.062 C37.138 59.107 36.588 60.152 36.021 61.229 C34.665 63.811 33.326 66.401 32 69 C31.459 68.88 30.918 68.759 30.361 68.635 C29.61 68.468 28.859 68.301 28.086 68.129 C27.263 67.945 26.44 67.761 25.593 67.571 C23.937 67.206 22.279 66.852 20.618 66.511 C6.551 63.589 6.551 63.589 3.242 60.199 C2.358 57.728 2.153 55.625 2 53 C1.725 51.053 1.449 49.105 1.162 47.16 C0.885 45.197 0.656 43.227 0.43 41.258 C0.104 37.997 0.104 37.997 -1 35 C-2.65 35.33 -4.3 35.66 -6 36 C-5.457 44.015 -4.865 52.013 -4 60 C-5.489 59.801 -5.489 59.801 -7.008 59.598 C-7.658 59.514 -8.308 59.43 -8.978 59.344 C-10.426 59.154 -11.873 58.954 -13.319 58.744 C-16.949 58.246 -20.08 58.007 -23.758 58.312 C-27.829 58.604 -30.21 58.591 -34 57 C-38.577 52.07 -41.722 46.016 -44.78 40.069 C-46.002 37.996 -47.132 36.515 -49 35 C-51.163 35.228 -51.163 35.228 -53 36 C-52.482 40.942 -50.164 44.192 -47.438 48.188 C-43 54.753 -43 54.753 -43 57 C-44.54 57.341 -46.082 57.672 -47.625 58 C-48.913 58.278 -48.913 58.278 -50.227 58.562 C-55.947 59.465 -55.947 59.465 -59 59 C-61.304 57.158 -63.021 54.955 -64.812 52.625 C-65.302 52.022 -65.791 51.418 -66.295 50.797 C-69.755 46.489 -69.755 46.489 -71 44 C-73.475 44.495 -73.475 44.495 -76 45 C-75.572 49.907 -73.079 52.756 -69.938 56.312 C-69.465 56.862 -68.993 57.412 -68.506 57.979 C-67.346 59.326 -66.174 60.664 -65 62 C-66.81 63.82 -68.638 65.607 -70.5 67.375 C-72.812 69.803 -74.408 72.067 -76 75 C-87.903 71.544 -98.441 61.95 -104.438 51.25 C-108.43 43.635 -108.814 36.556 -108 28 C-106.833 24.272 -105.176 21.232 -103 18 C-102.612 17.389 -102.224 16.778 -101.824 16.148 C-98.7 11.911 -94.543 9.117 -90.188 6.25 C-89.619 5.873 -89.051 5.496 -88.465 5.107 C-80.931 0.366 -73.492 -1.564 -64.625 -1.5 C-63.798 -1.5 -62.971 -1.5 -62.119 -1.5 C-56.063 -1.357 -51.481 -0.154 -46.227 3.004 C-43.353 4.289 -41.966 3.937 -39 3 C-37.035 2.124 -37.035 2.124 -35.188 1.062 C-25.259 -3.994 -9.875 -6.378 0 0 Z " fill="#FEFEFE" transform="translate(528,85)"/>
<path d="M0 0 C0.539 0.182 1.078 0.364 1.633 0.551 C15.404 4.76 30.035 6.056 44.367 6.578 C45.431 6.618 46.494 6.659 47.59 6.7 C59.782 7.121 71.974 7.151 84.172 7.13 C88.052 7.125 91.932 7.13 95.812 7.137 C98.313 7.136 100.813 7.135 103.312 7.133 C104.456 7.135 105.6 7.137 106.779 7.139 C112.269 7.123 117.619 6.926 123.067 6.234 C125.723 5.913 128.366 5.821 131.039 5.754 C132.107 5.722 133.175 5.691 134.276 5.658 C135.934 5.611 135.934 5.611 137.625 5.562 C151.817 5.084 165.211 3.455 179 0 C179.226 6.915 178.48 13.125 177 19.875 C176.781 20.874 176.563 21.872 176.338 22.901 C174.031 32.799 170.416 41.872 166 51 C165.483 52.079 164.966 53.158 164.434 54.27 C155.167 72.322 141.265 84.517 122.199 90.922 C112.017 93.773 101.705 94.336 91.188 94.25 C89.961 94.242 88.734 94.234 87.47 94.225 C68.114 93.987 50.376 91.62 35 79 C34.256 78.429 33.512 77.858 32.746 77.27 C16.736 64.211 6.96 42.589 2 23 C1.791 22.269 1.582 21.538 1.367 20.785 C-0.449 13.918 -0.181 7.058 0 0 Z " fill="#FEFEFE" transform="translate(118,832)"/>
<path d="M0 0 C1.756 0.427 1.756 0.427 3.547 0.863 C20.912 5.093 41.468 11.713 54 25 C54.784 25.763 55.567 26.526 56.375 27.312 C58.904 31.496 57.576 35.649 56.461 40.199 C55.797 42.601 55.093 44.988 54.375 47.375 C51.58 56.887 48.974 66.441 46.449 76.029 C44.834 82.103 43.057 88.06 41 94 C36.629 93.367 33.195 91.764 29.25 89.812 C-4.89 73.54 -51.749 62.413 -89 72 C-88.208 57.931 -86.543 44.025 -84.749 30.055 C-84.213 25.842 -83.753 21.63 -83.352 17.402 C-83.197 15.963 -83.197 15.963 -83.039 14.495 C-82.853 12.772 -82.694 11.046 -82.567 9.318 C-82.163 5.878 -81.727 3.767 -79.303 1.21 C-58.334 -15.165 -23.338 -6.829 0 0 Z " fill="#FEFEFE" transform="translate(541,157)"/>
<path d="M0 0 C0.004 1.12 0.008 2.241 0.012 3.395 C0.204 38.267 2.811 71.664 16.898 104.066 C18 107 18 107 18 111 C15.919 112.717 13.967 114.092 11.688 115.5 C11.02 115.925 10.353 116.35 9.666 116.788 C8.214 117.711 6.76 118.628 5.302 119.541 C2.955 121.029 0.644 122.563 -1.664 124.109 C-26.405 140.514 -26.405 140.514 -40.609 139.578 C-48.039 137.781 -53.622 130.93 -58 125 C-59.546 122.409 -60.813 119.771 -62 117 C-62.487 115.928 -62.975 114.855 -63.477 113.75 C-65.103 109.94 -66.156 106.083 -67.125 102.062 C-67.294 101.398 -67.463 100.733 -67.637 100.049 C-70.057 90.223 -70.202 80.568 -70.188 70.5 C-70.187 69.785 -70.187 69.07 -70.187 68.333 C-70.152 48.642 -68.06 31.57 -58.375 14.062 C-48.361 5.366 -29.617 4.004 -16.875 1.75 C-15.891 1.575 -14.907 1.399 -13.894 1.219 C-12.957 1.059 -12.02 0.899 -11.055 0.734 C-10.224 0.592 -9.394 0.45 -8.539 0.304 C-5.673 -0.039 -2.883 -0.049 0 0 Z " fill="#FEFEFE" transform="translate(391,490)"/>
<path d="M0 0 C0.66 0 1.32 0 2 0 C2.375 1.074 2.75 2.148 3.137 3.254 C3.653 4.69 4.17 6.126 4.688 7.562 C5.054 8.619 5.054 8.619 5.428 9.697 C8.796 18.949 12.884 23.552 21.688 27.938 C28.77 31.668 35.053 35.581 41 41 C41.606 41.526 42.212 42.052 42.836 42.594 C54.373 53.243 64.45 70.615 66.406 86.246 C66.601 92.887 66.301 97.274 61.801 102.344 C59.03 104.892 56.172 106.97 53 109 C52.34 108.67 51.68 108.34 51 108 C51.321 107.377 51.642 106.755 51.973 106.113 C57.002 90.872 51.978 73.884 45.243 60.061 C40.844 51.485 35.144 43.406 27 38 C26.34 38 25.68 38 25 38 C26.456 42.198 28.568 45.363 31.188 48.938 C43.057 65.657 49.705 83.635 46.669 104.248 C46.038 107.299 45.412 109.553 43.277 111.867 C40.431 113.283 37.614 114.229 34.562 115.125 C32.894 115.624 32.894 115.624 31.191 116.133 C25.523 117.673 20.275 118.172 14.402 118.203 C13.157 118.212 13.157 118.212 11.887 118.22 C10.131 118.23 8.375 118.236 6.619 118.24 C3.971 118.25 1.322 118.281 -1.326 118.312 C-10.663 118.371 -19.041 117.941 -28 115 C-28.723 114.791 -29.445 114.581 -30.19 114.365 C-40.218 111.45 -49.001 108.06 -56 100 C-59.981 88.058 -56.327 75.813 -51 65 C-41.575 46.623 -26.947 33.557 -8.438 24.812 C-4.954 22.976 -3.834 22.359 -2 19 C-1.525 16.131 -1.443 13.279 -1.375 10.375 C-1.104 2.207 -1.104 2.207 0 0 Z " fill="#FEFEFE" transform="translate(651,805)"/>
<path d="M0 0 C1.047 -0.039 2.094 -0.078 3.172 -0.119 C12.186 -0.149 16.924 3.055 23.539 8.836 C24.207 9.529 24.875 10.223 25.562 10.938 C26.672 12.086 26.672 12.086 27.805 13.258 C30.343 16.001 32.82 18.787 35.234 21.641 C39.905 26.912 44.53 30.333 50.625 33.75 C52.151 34.616 53.676 35.484 55.199 36.355 C55.869 36.732 56.539 37.109 57.229 37.497 C58.938 38.562 58.938 38.562 60.938 40.562 C60.562 42.688 60.562 42.688 59.938 44.562 C48.024 45.378 40.405 42.328 31.301 34.711 C29.09 32.701 27.046 30.613 25 28.438 C20.609 23.914 15.571 21.282 9.938 18.562 C9.297 18.221 8.656 17.879 7.996 17.527 C3.322 15.195 -0.979 15.251 -6.062 15.562 C-6.102 17.504 -6.102 17.504 -5.062 19.562 C-2.729 20.659 -0.556 21.505 1.875 22.312 C15.668 27.358 24.169 36.898 31.25 49.438 C32.12 50.956 32.991 52.475 33.863 53.992 C34.427 54.986 34.427 54.986 35.001 56 C35.844 57.55 35.844 57.55 36.938 58.562 C36.978 60.229 36.98 61.896 36.938 63.562 C29.507 64.506 29.507 64.506 25.617 62.168 C20.469 57.764 16.703 52.646 12.844 47.117 C8.947 41.896 4.095 37.838 -2.062 35.562 C-4.849 35.767 -4.849 35.767 -7.062 36.562 C-6.876 38.481 -6.876 38.481 -6.062 40.562 C-4.004 42.14 -1.838 43.333 0.418 44.609 C7.017 49.725 10.717 57.417 14.375 64.75 C15.062 66.064 15.062 66.064 15.764 67.404 C16.191 68.254 16.618 69.105 17.059 69.98 C17.445 70.741 17.831 71.502 18.228 72.286 C19.093 75.062 18.709 76.795 17.938 79.562 C14.69 80.145 12.598 79.976 9.781 78.215 C7.441 76.391 5.177 74.509 2.938 72.562 C2.28 71.991 1.623 71.42 0.945 70.832 C-0.197 69.839 -1.333 68.838 -2.457 67.824 C-6.461 64.678 -9.983 63.971 -14.992 64.031 C-20.358 64.96 -25.018 67.483 -29.84 69.934 C-34.656 72.368 -37.665 72.616 -43.012 72.379 C-64.068 71.274 -64.068 71.274 -83.047 79.213 C-86.397 81.456 -89.922 83.387 -93.431 85.368 C-95.316 86.436 -97.193 87.516 -99.062 88.612 C-99.913 89.11 -100.764 89.608 -101.641 90.121 C-102.398 90.568 -103.155 91.014 -103.935 91.474 C-105.985 92.523 -107.813 93.109 -110.062 93.562 C-110.382 92.252 -110.692 90.939 -111 89.625 C-111.261 88.529 -111.261 88.529 -111.527 87.41 C-113.056 79.273 -113.245 71.201 -113.25 62.938 C-113.262 61.844 -113.274 60.751 -113.287 59.625 C-113.308 47.99 -113.308 47.99 -111.062 43.562 C-108.491 41.795 -105.735 40.805 -102.812 39.75 C-96.625 37.269 -91.153 34.632 -85.812 30.625 C-85.251 30.205 -84.689 29.784 -84.11 29.351 C-82.987 28.506 -81.865 27.659 -80.744 26.811 C-57.04 9.214 -29.383 0.632 0 0 Z " fill="#FEFEFE" transform="translate(512.0625,442.4375)"/>
<path d="M0 0 C0.66 0 1.32 0 2 0 C2.34 1.609 2.34 1.609 2.688 3.25 C5.695 15.153 10.082 23.952 20.688 30.336 C21.513 30.823 22.338 31.311 23.188 31.812 C30.469 36.276 37.1 40.753 43 47 C43.763 47.804 44.526 48.609 45.312 49.438 C55.562 61.072 65.119 78.76 64.371 94.605 C63.257 101.793 56.522 106.8 51 111 C50.34 111 49.68 111 49 111 C49.321 109.855 49.642 108.711 49.973 107.531 C54.359 89.846 49.042 72.318 40 57 C35.308 49.665 29.631 40.877 21 38 C23.559 43.812 26.5 48.818 30.438 53.812 C41.72 68.487 47.145 86.577 45 105 C44.211 108.45 43.382 111.344 41 114 C28.163 121.909 10.556 121.642 -4 121 C-5.234 120.968 -6.467 120.936 -7.738 120.902 C-18.494 120.427 -30.615 118.564 -40 113 C-44.527 105.154 -44.271 94.498 -42.25 85.812 C-41.851 84.536 -41.433 83.266 -41 82 C-40.743 81.113 -40.487 80.226 -40.223 79.312 C-35.594 64.056 -27.103 52.304 -16.348 40.789 C-14.889 38.852 -14.412 37.37 -14 35 C-31.796 44.442 -40.907 61.468 -47 80 C-47.914 83.087 -48.129 85.845 -48.133 89.062 C-48.134 90.024 -48.135 90.986 -48.137 91.977 C-48.133 92.974 -48.129 93.972 -48.125 95 C-48.129 95.998 -48.133 96.995 -48.137 98.023 C-48.135 99.466 -48.135 99.466 -48.133 100.938 C-48.132 101.813 -48.131 102.688 -48.129 103.59 C-48.007 105.864 -47.637 107.82 -47 110 C-52.097 108.253 -55.581 105.908 -58.812 101.562 C-62.75 89.751 -58.909 78.768 -53.812 68.062 C-43.793 48.336 -28.134 33.581 -7.328 26.07 C-4.691 25.104 -4.691 25.104 -3 22 C-2.668 20.039 -2.668 20.039 -2.656 17.91 C-2.627 17.126 -2.597 16.341 -2.566 15.533 C-2.544 14.718 -2.523 13.903 -2.5 13.062 C-2.456 11.449 -2.405 9.836 -2.344 8.223 C-2.325 7.509 -2.306 6.795 -2.287 6.059 C-1.96 3.713 -1.157 2.053 0 0 Z " fill="#FEFEFE" transform="translate(376,803)"/>
<path d="M0 0 C0.66 0 1.32 0 2 0 C2.346 1.485 2.346 1.485 2.699 3 C5.189 13.252 7.783 21.831 17 28 C19.079 29.257 21.163 30.506 23.25 31.75 C29.525 35.515 34.825 39.833 40 45 C40.771 45.759 41.542 46.519 42.336 47.301 C54.628 60.117 63.526 77.602 63.414 95.504 C62.804 100.654 60.801 103.584 57 107 C53.946 109.273 52.8 110 49 110 C49.16 109.442 49.32 108.885 49.485 108.31 C53.945 88.301 47.238 69.85 37 53 C32.355 45.979 27.318 41.167 20 37 C21.331 41.93 23.358 44.981 26.625 48.875 C38.538 63.64 46.576 82.842 45 102 C43.446 111.639 43.446 111.639 39.875 115 C38.926 115.33 37.977 115.66 37 116 C36.384 116.249 35.768 116.498 35.133 116.754 C13.071 125.118 -17.476 123.458 -39 114 C-41.324 112.375 -41.324 112.375 -43 111 C-42.34 111 -41.68 111 -41 111 C-41.157 110.205 -41.315 109.409 -41.477 108.59 C-44.405 88.503 -39.978 70.788 -27.984 54.215 C-25.486 51.053 -22.877 48.007 -20.23 44.969 C-19.701 44.36 -19.171 43.752 -18.625 43.125 C-18.164 42.612 -17.702 42.099 -17.227 41.57 C-15.856 39.815 -14.934 38.016 -14 36 C-26.486 40.251 -33.763 50.954 -40 62 C-47.306 76.97 -50.21 92.44 -47 109 C-51.254 108.509 -54.113 105.968 -57 103 C-60.792 97.692 -60.808 92.274 -60 86 C-54.8 64.762 -41.95 45.179 -23.121 33.695 C-18.834 31.367 -14.432 29.322 -9.951 27.396 C-6.559 25.905 -5.111 25.166 -3 22 C-2.668 19.925 -2.668 19.925 -2.656 17.656 C-2.612 16.405 -2.612 16.405 -2.566 15.129 C-2.544 14.261 -2.523 13.394 -2.5 12.5 C-2.457 10.781 -2.405 9.062 -2.344 7.344 C-2.325 6.583 -2.306 5.821 -2.287 5.037 C-2 3 -2 3 0 0 Z " fill="#FEFEFE" transform="translate(510,803)"/>
<path d="M0 0 C1.261 -0.021 2.521 -0.041 3.82 -0.062 C26.315 -0.155 46.647 8.005 63.125 23.25 C72.799 33.253 81.896 46.942 81.707 61.25 C81.019 64.796 80.24 65.787 77.438 68 C75.69 69.121 73.917 70.202 72.125 71.25 C70.675 72.217 70.675 72.217 69.195 73.203 C58.773 80.013 46.026 88.204 33.125 86.25 C32.465 84.93 31.805 83.61 31.125 82.25 C31.693 81.693 32.262 81.136 32.848 80.562 C37.145 76.315 41.305 72.026 45.223 67.426 C46.693 65.744 48.21 64.103 49.746 62.48 C50.201 61.998 50.656 61.515 51.125 61.017 C52.439 59.627 53.762 58.245 55.086 56.863 C57.176 54.184 57.8 52.588 58.125 49.25 C54.874 49.824 53.341 50.689 51.137 53.129 C50.599 53.716 50.061 54.304 49.507 54.909 C48.948 55.537 48.388 56.165 47.812 56.812 C47.232 57.451 46.652 58.09 46.054 58.749 C44.401 60.574 42.76 62.409 41.125 64.25 C40.073 65.433 40.073 65.433 39 66.641 C37.365 68.502 35.744 70.374 34.125 72.25 C32.692 73.899 31.254 75.545 29.812 77.188 C29.156 77.939 28.5 78.691 27.824 79.465 C25.773 81.619 24.781 82.202 21.812 82.418 C20.926 82.424 20.039 82.431 19.125 82.438 C18.238 82.452 17.351 82.466 16.438 82.48 C14.125 82.25 14.125 82.25 12.125 80.25 C12.145 74.903 15.933 71.004 19 66.938 C20.185 65.333 21.369 63.728 22.551 62.121 C23.148 61.311 23.746 60.502 24.362 59.667 C27.041 55.993 29.622 52.254 32.188 48.5 C32.628 47.858 33.068 47.215 33.521 46.553 C34.342 45.352 35.161 44.148 35.977 42.943 C37.101 41.285 38.236 39.635 39.371 37.984 C41.238 35.32 41.238 35.32 42.125 32.25 C39.279 32.588 37.588 32.803 35.491 34.825 C35.023 35.498 34.556 36.17 34.074 36.863 C33.545 37.61 33.016 38.358 32.47 39.127 C31.65 40.333 31.65 40.333 30.812 41.562 C30.237 42.384 29.662 43.206 29.069 44.052 C25.996 48.459 22.984 52.908 20 57.375 C19.386 58.29 18.773 59.205 18.141 60.148 C16.555 62.588 15.043 65.045 13.547 67.539 C6.74 78.571 6.74 78.571 2.375 80.406 C-1.888 80.558 -4.31 79.596 -7.938 77.375 C-10.149 74.949 -10.798 73.906 -11.179 70.656 C-10.772 66.101 -9.061 62.787 -7.008 58.746 C-6.613 57.945 -6.218 57.144 -5.811 56.319 C-4.552 53.77 -3.277 51.228 -2 48.688 C-0.734 46.141 0.529 43.594 1.79 41.045 C2.575 39.463 3.363 37.883 4.154 36.304 C7.779 29.592 7.779 29.592 9.125 22.25 C8.135 22.25 7.145 22.25 6.125 22.25 C-0.65 34.668 -6.796 47.305 -12.671 60.167 C-13.203 61.331 -13.736 62.496 -14.285 63.695 C-14.761 64.742 -15.237 65.789 -15.727 66.868 C-16.875 69.25 -16.875 69.25 -17.875 70.25 C-20.929 70.692 -23.825 70.723 -26.875 70.25 C-30.375 67.494 -33.54 64.408 -34.246 59.859 C-34.545 47 -29.639 35.97 -23.643 24.88 C-21.262 20.405 -19.946 16.21 -18.875 11.25 C-22.992 13.365 -24.891 15.342 -27.125 19.375 C-29.855 24.23 -29.855 24.23 -30.875 25.25 C-37.103 25.802 -42.568 25.924 -47.875 22.25 C-49.875 19.25 -49.875 19.25 -49.812 16.25 C-48.875 13.25 -48.875 13.25 -46.793 11.715 C-43.378 10.001 -39.904 8.878 -36.25 7.812 C-30.433 6.06 -24.705 4.174 -19.012 2.047 C-12.69 -0.311 -6.699 0.027 0 0 Z " fill="#FEFEFE" transform="translate(605.875,674.75)"/>
<path d="M0 0 C1.084 -0.003 2.168 -0.006 3.285 -0.008 C4.493 -0.006 5.701 -0.004 6.946 -0.002 C8.221 -0.004 9.496 -0.006 10.81 -0.007 C14.382 -0.012 17.954 -0.011 21.526 -0.008 C25.4 -0.007 29.274 -0.011 33.148 -0.014 C39.948 -0.019 46.748 -0.021 53.548 -0.02 C63.659 -0.018 73.771 -0.022 83.883 -0.027 C102.989 -0.037 122.096 -0.04 141.202 -0.041 C155.952 -0.041 170.702 -0.043 185.451 -0.046 C189.691 -0.047 193.93 -0.048 198.17 -0.049 C199.223 -0.049 200.277 -0.049 201.363 -0.05 C231.02 -0.056 260.678 -0.06 290.335 -0.059 C291.454 -0.059 292.573 -0.059 293.726 -0.059 C299.398 -0.059 305.071 -0.059 310.743 -0.059 C311.869 -0.059 312.996 -0.059 314.157 -0.059 C316.435 -0.059 318.713 -0.059 320.992 -0.059 C356.451 -0.058 391.911 -0.066 427.37 -0.079 C467.17 -0.095 506.97 -0.103 546.77 -0.102 C551.009 -0.102 555.249 -0.102 559.489 -0.102 C561.055 -0.102 561.055 -0.102 562.652 -0.102 C579.49 -0.102 596.328 -0.109 613.166 -0.117 C630.073 -0.126 646.981 -0.127 663.888 -0.12 C673.945 -0.116 684.003 -0.118 694.061 -0.128 C700.767 -0.134 707.474 -0.133 714.18 -0.125 C718.009 -0.122 721.838 -0.121 725.667 -0.129 C729.779 -0.137 733.891 -0.131 738.003 -0.122 C739.208 -0.127 740.414 -0.132 741.656 -0.137 C743.286 -0.13 743.286 -0.13 744.949 -0.123 C746.361 -0.123 746.361 -0.123 747.802 -0.123 C750.037 0.126 750.037 0.126 752.037 2.126 C751.481 6.682 751.481 6.682 750.037 8.126 C748.385 8.225 746.729 8.252 745.074 8.253 C743.99 8.256 742.906 8.259 741.789 8.261 C740.581 8.259 739.373 8.257 738.128 8.255 C736.853 8.257 735.578 8.259 734.264 8.26 C730.692 8.265 727.12 8.264 723.548 8.261 C719.674 8.26 715.8 8.264 711.927 8.267 C705.126 8.272 698.326 8.274 691.526 8.273 C681.415 8.271 671.303 8.275 661.191 8.28 C642.085 8.29 622.978 8.293 603.872 8.294 C589.122 8.294 574.372 8.296 559.623 8.299 C555.383 8.3 551.144 8.301 546.904 8.302 C545.851 8.302 544.797 8.302 543.711 8.303 C514.054 8.309 484.396 8.313 454.739 8.312 C453.62 8.312 452.501 8.312 451.348 8.312 C445.676 8.312 440.004 8.312 434.331 8.312 C433.205 8.312 432.078 8.312 430.917 8.312 C428.639 8.312 426.361 8.312 424.082 8.312 C388.623 8.311 353.163 8.319 317.704 8.332 C277.904 8.348 238.104 8.356 198.304 8.355 C194.065 8.355 189.825 8.355 185.585 8.355 C184.019 8.355 184.019 8.355 182.422 8.355 C165.584 8.355 148.746 8.362 131.908 8.37 C115.001 8.379 98.094 8.38 81.186 8.373 C71.129 8.369 61.071 8.371 51.014 8.381 C44.307 8.387 37.6 8.386 30.894 8.378 C27.065 8.375 23.236 8.374 19.407 8.382 C15.295 8.39 11.183 8.384 7.071 8.375 C5.866 8.38 4.66 8.385 3.418 8.39 C1.788 8.383 1.788 8.383 0.125 8.376 C-1.287 8.376 -1.287 8.376 -2.728 8.376 C-4.963 8.126 -4.963 8.126 -6.963 6.126 C-6.273 0.471 -5.521 0.002 0 0 Z " fill="#040404" transform="translate(121.96297925710678,938.8735001683235)"/>
<path d="M0 0 C1.395 1.037 2.77 2.1 4.125 3.188 C4.86 3.738 5.595 4.288 6.352 4.855 C17.101 13.518 25.539 27.43 27.188 41.188 C26.944 50.925 19.418 59.246 13.125 66.188 C11.19 67.983 9.224 69.58 7.125 71.188 C6.597 69.664 6.597 69.664 6.059 68.109 C-1.882 45.721 -14.929 28.529 -36.646 17.989 C-49.92 11.801 -62.336 9.236 -76.875 8.188 C-57.979 -11.16 -22.754 -14.173 0 0 Z " fill="#FEFEFE" transform="translate(687.875,657.8125)"/>
<path d="M0 0 C3.582 -0.002 7.164 -0.02 10.746 -0.039 C22.704 -0.069 34.585 0.202 46.513 1.072 C48.117 1.189 48.117 1.189 49.753 1.308 C56.264 1.832 62.676 2.675 69.123 3.732 C74.306 4.535 79.528 4.958 84.754 5.396 C90.833 5.97 90.833 5.97 93.049 8.185 C78.859 13.191 64.869 14.318 49.938 14.844 C48.62 14.891 48.62 14.891 47.275 14.939 C46.124 14.975 46.124 14.975 44.949 15.012 C42.506 15.158 40.119 15.408 37.689 15.69 C30.662 16.408 23.624 16.35 16.568 16.353 C15.068 16.356 13.568 16.36 12.068 16.363 C8.929 16.369 5.79 16.371 2.65 16.371 C-0.519 16.371 -3.689 16.377 -6.858 16.391 C-56.927 16.605 -56.927 16.605 -76.951 11.185 C-77.611 10.525 -78.271 9.865 -78.951 9.185 C-73.666 6.113 -68.512 5.105 -62.576 4.06 C-61.669 3.891 -60.761 3.723 -59.826 3.549 C-40.05 -0.07 -20.047 -0.001 0 0 Z " fill="#FEFEFE" transform="translate(203.951416015625,814.814697265625)"/>
<path d="M0 0 C6.146 0.662 11.672 2.962 17.438 5.062 C27.604 8.677 37.801 11.715 48.25 14.375 C49.509 14.696 50.767 15.017 52.064 15.348 C63.875 18.301 75.67 20.995 87.75 22.562 C93.817 23.363 99.793 24.301 105.776 25.595 C108.933 26.17 111.8 26.204 115 26 C115.495 25.505 115.495 25.505 116 25 C123.426 24.513 123.426 24.513 125.76 26.494 C128.648 28.436 130.481 28.392 133.945 28.42 C135.149 28.436 136.353 28.452 137.594 28.468 C138.901 28.468 140.208 28.469 141.555 28.469 C142.934 28.476 144.314 28.484 145.694 28.492 C148.604 28.505 151.514 28.507 154.425 28.501 C157.345 28.496 160.265 28.51 163.186 28.542 C182.644 28.756 200.995 27.376 220.106 23.565 C223.063 22.988 226.026 22.483 229 22 C228.097 25.341 227.481 26.706 224.48 28.539 C220.337 30.278 216.336 31.211 211.938 32.062 C211.187 32.223 210.436 32.383 209.662 32.549 C193.436 35.773 176.837 36.334 160.343 36.261 C157.501 36.25 154.659 36.261 151.816 36.273 C134.138 36.287 116.84 34.649 99.414 31.727 C94.154 30.846 88.876 30.133 83.59 29.43 C81 29 81 29 79 28 C76.983 27.701 74.961 27.436 72.938 27.188 C60.244 25.424 48.042 22.16 35.863 18.227 C32.101 17.016 28.307 15.937 24.5 14.875 C15.576 12.344 7.409 8.911 -1 5 C-0.67 3.35 -0.34 1.7 0 0 Z " fill="#EFEFEF" transform="translate(340,691)"/>
<path d="M0 0 C0.99 0.33 1.98 0.66 3 1 C4.166 3.713 5.148 6.328 6.062 9.125 C6.318 9.873 6.574 10.62 6.838 11.391 C7.582 13.588 8.309 15.785 9 18 C9.353 19.104 9.707 20.209 10.071 21.346 C10.999 24.995 11.258 28.069 11.266 31.824 C11.268 33.101 11.271 34.378 11.273 35.693 C11.266 37.011 11.258 38.329 11.25 39.688 C11.258 40.986 11.265 42.285 11.273 43.623 C11.259 50.726 10.767 57.41 9.458 64.389 C7.808 73.787 8.423 83.159 12 92 C12.464 93.201 12.928 94.403 13.406 95.641 C16.042 102.176 18.786 107.917 23.116 113.503 C29.212 121.473 30.037 127.482 28.773 137.367 C28.528 138.914 28.271 140.458 28 142 C27.873 142.729 27.745 143.457 27.614 144.208 C26.886 148.177 26.013 152.094 25 156 C24.34 156 23.68 156 23 156 C22.925 155.163 22.85 154.327 22.773 153.465 C21.168 139.254 15.546 127.873 8.938 115.375 C-1.748 95.066 -4.195 81.24 1.203 58.833 C4.307 45.282 4.459 31.537 0.668 18.117 C-0.611 12.15 -0.227 6.073 0 0 Z " fill="#FEFEFE" transform="translate(566,495)"/>
<path d="M0 0 C2.812 0.062 2.812 0.062 6 1 C9.035 4.275 9.921 6.453 10.562 10.875 C10.138 18.301 4.935 23.217 -0.16 28.078 C-7.84 36.101 -11.521 43.574 -11.309 54.648 C-10.514 63.281 -6.522 70.334 0 76 C6.07 80.359 12.457 82.871 19.465 85.316 C27.225 88.159 32.211 92.074 36.09 99.52 C37.598 103.629 37.738 107.698 37 112 C36.34 112.99 35.68 113.98 35 115 C32.438 115.25 32.438 115.25 30 115 C27.844 112.844 28.678 107.998 28.574 105.078 C27.839 101.135 26.966 99.729 24 97 C20.724 95.283 17.321 93.962 13.875 92.625 C-0.693 86.661 -11.085 79.79 -18.055 65.297 C-21.625 56.622 -20.568 47.635 -17.395 38.988 C-13.863 31.422 -8.527 25.095 -2.445 19.438 C-0.442 17.445 0.903 15.76 1.266 12.914 C1.236 8.503 1.071 5.013 -1 1 C-0.67 0.67 -0.34 0.34 0 0 Z " fill="#0F0E0F" transform="translate(684,336)"/>
<path d="M0 0 C0.495 1.98 0.495 1.98 1 4 C0.522 4.291 0.043 4.583 -0.449 4.883 C-2.663 6.242 -4.862 7.621 -7.062 9 C-8.191 9.686 -8.191 9.686 -9.342 10.387 C-18.505 16.178 -23.781 23.597 -28.812 33.062 C-29.322 34.008 -29.831 34.953 -30.355 35.927 C-34.983 44.672 -39.001 53.653 -42.844 62.766 C-43.389 64.058 -43.389 64.058 -43.945 65.377 C-44.673 67.186 -45.353 69.015 -45.992 70.857 C-46.314 71.766 -46.637 72.674 -46.969 73.609 C-47.241 74.429 -47.514 75.248 -47.795 76.093 C-49 78 -49 78 -51.564 78.837 C-52.368 78.891 -53.172 78.945 -54 79 C-55 78 -55 78 -55.273 74.516 C-55.199 69.457 -53.579 65.363 -51.625 60.75 C-51.275 59.898 -50.925 59.047 -50.564 58.169 C-46.529 48.546 -41.818 39.25 -37 30 C-38.386 29.887 -38.386 29.887 -40.25 32.062 C-43 34 -43 34 -45.812 33.75 C-46.534 33.503 -47.256 33.255 -48 33 C-47.518 25.639 -44.471 22.574 -39.289 17.777 C-29.218 9.03 -13.818 -1.658 0 0 Z " fill="#040404" transform="translate(313,502)"/>
<path d="M0 0 C3.875 1.875 3.875 1.875 5 3 C5.488 8.495 4.317 13.12 2.906 18.418 C2.079 21.688 1.377 24.952 0.713 28.257 C-1.13 37.428 -3.308 46.499 -5.625 55.562 C-5.926 56.759 -6.228 57.955 -6.538 59.188 C-6.827 60.303 -7.116 61.418 -7.414 62.566 C-7.671 63.566 -7.929 64.566 -8.194 65.596 C-9 68 -9 68 -11 70 C-17.207 70.379 -21.975 68.455 -27 65 C-28.742 61.516 -28.453 57.786 -27.505 54.051 C-26.801 51.943 -26.03 49.873 -25.227 47.801 C-24.943 47.043 -24.659 46.286 -24.367 45.505 C-23.463 43.104 -22.544 40.708 -21.625 38.312 C-21.015 36.692 -20.405 35.072 -19.797 33.451 C-14.993 20.721 -14.993 20.721 -13 17 C-11.68 17 -10.36 17 -9 17 C-8.811 21.938 -9.307 25.779 -10.898 30.449 C-11.295 31.627 -11.692 32.804 -12.102 34.018 C-12.522 35.229 -12.942 36.44 -13.375 37.688 C-13.788 38.91 -14.2 40.133 -14.625 41.393 C-17.713 50.461 -17.713 50.461 -19.135 53.128 C-20.28 55.262 -20.28 55.262 -20 59 C-18.35 59.66 -16.7 60.32 -15 61 C-14.866 60.153 -14.731 59.305 -14.593 58.432 C-13.992 54.956 -13.273 51.527 -12.512 48.082 C-12.297 47.105 -12.297 47.105 -12.078 46.109 C-11.616 44.01 -11.152 41.911 -10.688 39.812 C-8.136 28.329 -8.136 28.329 -5.754 16.809 C-5.58 15.935 -5.405 15.062 -5.226 14.163 C-4.919 12.605 -4.62 11.045 -4.331 9.484 C-3.567 5.631 -2.68 2.921 0 0 Z " fill="#0F0E0F" transform="translate(521,254)"/>
<path d="M0 0 C2.475 0.495 2.475 0.495 5 1 C7.299 8.943 8.764 16.977 10.125 25.125 C10.381 26.644 10.381 26.644 10.642 28.193 C12.376 38.795 13.2 49.13 13.25 59.875 C13.271 60.969 13.291 62.064 13.312 63.191 C13.347 70.565 13.011 78.158 10 85 C7.892 86.332 7.892 86.332 6 87 C5 86 5 86 4.95 83.704 C4.981 82.681 5.011 81.659 5.043 80.605 C5.349 65.68 4.79 51.204 3.062 36.375 C2.971 35.584 2.88 34.793 2.785 33.978 C1.962 25.824 1.962 25.824 0.445 17.792 C-0.369 14.515 -0.101 11.108 -0.062 7.75 C-0.058 7.005 -0.053 6.26 -0.049 5.492 C-0.037 3.661 -0.019 1.831 0 0 Z " fill="#0F0E0F" transform="translate(382,834)"/>
<path d="M0 0 C1.65 0 3.3 0 5 0 C7.316 7.793 8.87 15.526 10.062 23.562 C10.385 25.689 10.709 27.815 11.035 29.941 C11.192 30.971 11.348 32.001 11.509 33.061 C11.952 35.714 12.507 38.308 13.105 40.93 C14.376 47.114 14.292 53.271 14.25 59.562 C14.258 60.73 14.265 61.897 14.273 63.1 C14.237 79.221 14.237 79.221 9.938 84.562 C8 86 8 86 7 86 C6.986 84.835 6.986 84.835 6.972 83.646 C6.642 61.54 5.063 39.815 0.879 18.059 C0.106 13.929 -0.216 10.027 -0.125 5.812 C-0.107 4.705 -0.089 3.598 -0.07 2.457 C-0.047 1.646 -0.024 0.835 0 0 Z " fill="#0F0E0F" transform="translate(661,835)"/>
<path d="M0 0 C0.99 0 1.98 0 3 0 C3.113 7.834 2.989 15.616 2.562 23.438 C2.523 24.182 2.484 24.926 2.444 25.693 C2.381 26.771 2.381 26.771 2.316 27.871 C2.261 28.814 2.261 28.814 2.205 29.775 C2.04 31.563 1.785 33.341 1.5 35.114 C0.89 39.857 0.77 44.531 0.684 49.309 C0.663 50.275 0.642 51.242 0.621 52.238 C0.556 55.304 0.496 58.371 0.438 61.438 C0.394 63.525 0.351 65.613 0.307 67.701 C0.2 72.801 0.099 77.9 0 83 C-1.32 83 -2.64 83 -4 83 C-13.629 59.557 -9.258 24.471 -1 1 C-0.67 0.67 -0.34 0.34 0 0 Z " fill="#0F0E0F" transform="translate(650,838)"/>
<path d="M0 0 C2.475 0.495 2.475 0.495 5 1 C6.554 5.32 7.529 9.485 8.254 14.016 C8.36 14.671 8.465 15.327 8.574 16.003 C8.796 17.384 9.015 18.766 9.232 20.148 C9.56 22.231 9.895 24.313 10.232 26.395 C17.507 71.74 17.507 71.74 8 86 C7.01 86 6.02 86 5 86 C5.026 85.291 5.052 84.583 5.079 83.853 C5.69 64.311 4.242 45.429 1.779 26.044 C1.55 24.233 1.321 22.421 1.094 20.609 C0.986 19.753 0.879 18.897 0.768 18.015 C0.042 11.993 -0.318 6.069 0 0 Z " fill="#0F0E0F" transform="translate(516,835)"/>
<path d="M0 0 C0.99 0.33 1.98 0.66 3 1 C2.658 11.514 1.208 21.712 -0.54 32.078 C-2.511 43.779 -3.252 55.213 -3.562 67.062 C-3.606 68.611 -3.649 70.16 -3.693 71.709 C-3.799 75.473 -3.901 79.236 -4 83 C-5.32 82.67 -6.64 82.34 -8 82 C-10.742 73.754 -11.479 66.222 -11.375 57.562 C-11.366 56.335 -11.356 55.107 -11.346 53.842 C-11.114 39.625 -8.985 26.256 -5.5 12.5 C-5.299 11.704 -5.097 10.908 -4.89 10.088 C-3.82 6.145 -2.822 3.085 0 0 Z " fill="#0F0E0F" transform="translate(372,838)"/>
<path d="M0 0 C0.99 0.33 1.98 0.66 3 1 C3.104 6.47 2.762 11.669 1.941 17.082 C1.717 18.654 1.494 20.226 1.272 21.799 C1.156 22.617 1.039 23.435 0.92 24.277 C-1.84 43.872 -2.905 63.225 -3 83 C-4.32 82.67 -5.64 82.34 -7 82 C-9.913 73.399 -10.508 65.416 -10.438 56.375 C-10.435 55.704 -10.433 55.034 -10.43 54.343 C-10.187 10.187 -10.187 10.187 0 0 Z " fill="#0F0E0F" transform="translate(506,838)"/>
<path d="M0 0 C-1.001 3.558 -2.616 5.827 -5.062 8.5 C-13.231 17.571 -19.627 27.591 -24 39 C-24.271 39.706 -24.543 40.413 -24.823 41.141 C-27.305 48.327 -27.352 55.08 -27.188 62.625 C-27.167 64.417 -27.167 64.417 -27.146 66.246 C-27.111 69.165 -27.062 72.082 -27 75 C-30 76 -30 76 -32.125 74.938 C-36.598 70.315 -35.239 61.815 -35.148 55.738 C-34.957 50.926 -34.333 46.622 -33 42 C-32.693 40.934 -32.386 39.868 -32.07 38.77 C-27.948 25.962 -15.655 0 0 0 Z " fill="#0F0E0F" transform="translate(496,839)"/>
<path d="M0 0 C-0.525 3.823 -1.327 5.796 -4 8.562 C-20.152 26.303 -29.114 45.722 -28 70 C-27.54 72.82 -26.889 75.279 -26 78 C-28.64 77.34 -31.28 76.68 -34 76 C-37.107 61.835 -35.884 47.192 -30 34 C-29.531 32.922 -29.062 31.845 -28.578 30.734 C-24.333 21.651 -11.421 0 0 0 Z " fill="#0F0E0F" transform="translate(362,838)"/>
<path d="M0 0 C-0.463 4.717 -2.265 6.697 -5.562 10 C-19.673 25.017 -27.679 44.105 -27.188 64.688 C-27.174 65.783 -27.16 66.878 -27.146 68.006 C-27.112 70.671 -27.063 73.335 -27 76 C-29.867 75.427 -30.861 75.139 -33 73 C-37.834 61.266 -35.205 47.103 -30.676 35.652 C-25.746 24.59 -14.444 0 0 0 Z " fill="#0F0E0F" transform="translate(640,838)"/>
<path d="M0 0 C2.266 1.637 2.913 2.597 3.504 5.348 C3.718 15.288 -0.299 21.376 -7 28.438 C-10.888 32.117 -14.461 35 -20 35 C-19.014 28.662 -17.417 22.562 -15.75 16.375 C-15.463 15.243 -15.175 14.111 -14.879 12.945 C-14.584 11.857 -14.289 10.769 -13.984 9.648 C-13.724 8.66 -13.463 7.672 -13.194 6.654 C-10.488 0.641 -6.295 -0.816 0 0 Z " fill="#EFEFEF" transform="translate(589,286)"/>
<path d="M0 0 C0.711 2.18 0.711 2.18 1 5 C-0.336 7.508 -0.336 7.508 -2.375 10.125 C-3.12 11.093 -3.865 12.061 -4.633 13.059 C-7.554 16.688 -10.505 20.29 -13.48 23.875 C-18.543 30.072 -23.235 36.574 -28 43 C-29.65 42.67 -31.3 42.34 -33 42 C-32.645 35.729 -30.622 32.405 -26.75 27.562 C-25.958 26.541 -25.958 26.541 -25.151 25.499 C-23.451 23.319 -21.729 21.158 -20 19 C-19.409 18.258 -18.818 17.516 -18.208 16.751 C-10.061 6.544 -10.061 6.544 -7 3 C-6.532 2.438 -6.063 1.877 -5.58 1.298 C-4 0 -4 0 0 0 Z " fill="#040404" transform="translate(650,511)"/>
<path d="M0 0 C2.188 0 2.188 0 5 1 C6.312 2.488 6.312 2.488 7.688 4.312 C11.701 9.327 16.882 11.259 23.105 12.379 C28.05 12.685 31.682 11.042 35.922 8.777 C38.387 7.855 39.562 8.127 42 9 C42.495 10.98 42.495 10.98 43 13 C35.495 18.441 28.4 21.241 19 20 C10.2 17.851 3.015 12.523 -2 5 C-1.483 1.483 -1.483 1.483 0 0 Z " fill="#0F0E0F" transform="translate(481,323)"/>
<path d="M0 0 C5.11 1.952 10.572 4.385 14.5 8.312 C14.541 9.979 14.543 11.646 14.5 13.312 C11.526 14.189 9.948 14.478 7 13.387 C5.763 12.7 5.763 12.7 4.5 12 C-3.069 7.873 -8.65 6.974 -17.17 6.746 C-23.298 6.514 -23.298 6.514 -25.5 4.312 C-25.25 1.75 -25.25 1.75 -24.5 -0.688 C-17.953 -3.961 -6.675 -2.117 0 0 Z " fill="#0F0E0F" transform="translate(712.5,608.6875)"/>
<path d="M0 0 C2.847 2.447 3.947 4.879 5.301 8.352 C8.501 16.316 12.157 24.048 15.803 31.816 C16.315 32.916 16.828 34.016 17.355 35.148 C18.046 36.621 18.046 36.621 18.751 38.123 C22.758 47.353 22.758 47.353 21 52 C17.793 55 17.793 55 15 55 C11.494 44.105 8.315 33.149 5.35 22.095 C4.675 19.578 3.993 17.062 3.311 14.547 C2.877 12.94 2.444 11.333 2.012 9.727 C1.809 8.978 1.606 8.229 1.396 7.457 C0 2.231 0 2.231 0 0 Z " fill="#EFEFEF" transform="translate(603,780)"/>
<path d="M0 0 C11.451 -0.573 26.697 2.251 35.891 9.488 C37 11 37 11 36.688 13.688 C36.461 14.451 36.234 15.214 36 16 C29.965 15.445 24.755 14.1 19.062 12.062 C13.689 10.157 8.46 8.561 2.845 7.525 C1 7 1 7 -1 5 C-0.625 2.375 -0.625 2.375 0 0 Z " fill="#0F0E0F" transform="translate(311,465)"/>
<path d="M0 0 C7.234 0.147 12.944 3.06 18.188 7.938 C19.5 10.438 19.5 10.438 19.5 13.125 C18.5 15.438 18.5 15.438 16.762 16.758 C14.5 17.438 14.5 17.438 12.02 16.355 C11.126 15.784 10.233 15.213 9.312 14.625 C5.573 12.41 2.788 11.046 -1.562 10.75 C-2.862 10.647 -4.161 10.544 -5.5 10.438 C-7.5 7.438 -7.5 7.438 -7.25 4.875 C-5.943 0.628 -4.154 0.112 0 0 Z " fill="#0F0E0F" transform="translate(542.5,254.5625)"/>
<path d="M0 0 C1.277 0.001 2.555 0.003 3.871 0.004 C8.71 0.572 12.108 1.983 15.562 5.438 C15.196 8.372 14.698 9.302 12.562 11.438 C10.256 11.696 10.256 11.696 7.406 11.703 C5.873 11.707 5.873 11.707 4.309 11.711 C3.237 11.703 2.166 11.695 1.062 11.688 C-0.544 11.699 -0.544 11.699 -2.184 11.711 C-3.206 11.708 -4.228 11.706 -5.281 11.703 C-6.222 11.701 -7.162 11.699 -8.131 11.696 C-10.438 11.438 -10.438 11.438 -12.438 9.438 C-12.875 7.062 -12.875 7.062 -12.438 4.438 C-8.492 0.35 -5.577 -0.084 0 0 Z " fill="#040404" transform="translate(491.4375,243.5625)"/>
<path d="M0 0 C4.265 0.607 7.429 2.114 11.188 4.188 C12.895 5.129 12.895 5.129 14.637 6.09 C19.141 8.648 23.583 11.294 28 14 C29.666 15.001 31.332 16.002 33 17 C32.625 19.438 32.625 19.438 32 22 C28.771 23.614 25.5 23.435 22 23 C16.271 20.44 13.084 15.614 9.258 10.77 C6.758 7.703 4.082 4.96 1.215 2.242 C0 1 0 1 0 0 Z " fill="#EFEFEF" transform="translate(538,443)"/>
<path d="M0 0 C4.046 0.197 6.602 1.266 9.875 3.5 C13.958 6.235 17.128 6.739 22 7 C21.692 9.848 21.345 11.583 19.5 13.812 C15.672 15.631 12.158 15.651 8 15 C3.678 12.798 0.536 10.159 -2 6 C-1.707 1.707 -1.707 1.707 0 0 Z " fill="#0F0E0F" transform="translate(532,283)"/>
<path d="M0 0 C3.584 0.102 5.548 1.337 8.25 3.5 C12.248 6.562 16.072 6.877 21 7 C21.25 9.312 21.25 9.312 21 12 C18.168 14.703 16.068 15.451 12.188 15.5 C6.948 15.353 3.665 13.696 0 10 C-2.149 6.776 -2.383 5.733 -2 2 C-1.34 1.34 -0.68 0.68 0 0 Z " fill="#0F0E0F" transform="translate(478,271)"/>
<path d="M0 0 C0.33 0.99 0.66 1.98 1 3 C1.66 3 2.32 3 3 3 C1.549 11.786 -0.023 20.517 -2.062 29.188 C-2.225 29.881 -2.387 30.574 -2.554 31.289 C-3.51 35.269 -4.648 39.137 -6 43 C-7.65 42.67 -9.3 42.34 -11 42 C-12.022 38.187 -11.988 36.079 -10.5 32.438 C-8.338 26.886 -6.295 21.305 -4.312 15.688 C-3.848 14.398 -3.848 14.398 -3.375 13.082 C-1.836 8.729 -0.564 4.609 0 0 Z " fill="#EFEFEF" transform="translate(512,272)"/>
<path d="M0 0 C2.762 0.999 3.796 1.564 5.065 4.271 C5.325 5.203 5.584 6.134 5.852 7.094 C6.145 8.125 6.439 9.156 6.742 10.219 C7.034 11.302 7.325 12.384 7.625 13.5 C7.924 14.552 8.223 15.604 8.531 16.688 C15.32 40.957 15.32 40.957 11.562 49.125 C10.789 50.053 10.789 50.053 10 51 C9.67 51 9.34 51 9 51 C8.997 50.279 8.995 49.559 8.992 48.816 C8.649 39.274 6.62 30.462 4.259 21.237 C2.466 14.198 1.082 7.183 0 0 Z " fill="#E6E6E6" transform="translate(410,542)"/>
<path d="M0 0 C5.94 0 11.88 0 18 0 C16.396 4.01 14.693 7.899 12.875 11.812 C12.336 12.974 11.797 14.135 11.242 15.332 C10.832 16.212 10.422 17.093 10 18 C7.788 15.963 6.415 14.16 5.176 11.426 C4.899 10.824 4.622 10.223 4.337 9.603 C3.83 8.469 3.83 8.469 3.312 7.312 C2.219 4.899 1.126 2.486 0 0 Z " fill="#EFEFEF" transform="translate(436,860)"/>
<path d="M0 0 C1.658 4.421 0.665 6.679 0 12 C-5.94 12 -11.88 12 -18 12 C-18 11.34 -18 10.68 -18 10 C-17.371 9.697 -16.742 9.394 -16.094 9.082 C-10.511 6.349 -5.196 3.411 0 0 Z " fill="#EFEFEF" transform="translate(534,423)"/>
<path d="M0 0 C1.812 0.125 1.812 0.125 4 1 C6.966 5.237 7.347 8.946 7.398 13.949 C6.907 16.478 5.947 17.377 4 19 C1.493 16.493 1.177 14.608 0.312 11.188 C0.041 10.15 -0.231 9.112 -0.512 8.043 C-1.003 4.984 -0.816 2.962 0 0 Z " fill="#1E1E1E" transform="translate(437,253)"/>
<path d="M0 0 C1.302 2.605 0.8 3.449 -0.062 6.188 C-2.267 12.41 -5.611 16.501 -11.188 20 C-14 21 -14 21 -17 20 C-16.051 19.113 -15.102 18.226 -14.125 17.312 C-8.819 12.039 -4.469 5.979 0 0 Z " fill="#EFEFEF" transform="translate(714,719)"/>
<path d="M0 0 C1.32 0.33 2.64 0.66 4 1 C3.425 4.884 1.67 7.178 -1 10 C-3.25 10.812 -3.25 10.812 -5 11 C-4.547 6.126 -3.291 3.61 0 0 Z " fill="#1E1E1E" transform="translate(582,295)"/>
<path d="M0 0 C1.675 0.286 3.344 0.618 5 1 C4.67 2.32 4.34 3.64 4 5 C2.68 5.33 1.36 5.66 0 6 C-0.382 4.344 -0.714 2.675 -1 1 C-0.67 0.67 -0.34 0.34 0 0 Z " fill="#1E1E1E" transform="translate(471,302)"/>
<path d="M0 0 C1.98 0.495 1.98 0.495 4 1 C3.67 2.65 3.34 4.3 3 6 C1.68 5.67 0.36 5.34 -1 5 C-0.67 3.35 -0.34 1.7 0 0 Z " fill="#0F0E0F" transform="translate(536,318)"/>
<path d="M0 0 C2.796 2.796 3.434 3.457 4.312 7 C4.494 7.681 4.676 8.361 4.863 9.062 C5 11 5 11 3 14 C2.01 9.38 1.02 4.76 0 0 Z " fill="#A5A6A6" transform="translate(603,780)"/>
<path d="M0 0 C1.32 0 2.64 0 4 0 C4 1.65 4 3.3 4 5 C2.35 5 0.7 5 -1 5 C-0.67 3.35 -0.34 1.7 0 0 Z " fill="#282828" transform="translate(545,304)"/>
<path d="M0 0 C1.32 0 2.64 0 4 0 C3.67 1.65 3.34 3.3 3 5 C1.68 4.67 0.36 4.34 -1 4 C-0.67 2.68 -0.34 1.36 0 0 Z " fill="#0F0E0F" transform="translate(464,285)"/>
<path d="M0 0 C0.33 0.99 0.66 1.98 1 3 C1.66 3 2.32 3 3 3 C2.67 5.64 2.34 8.28 2 11 C0.438 10 0.438 10 -1 8 C-0.967 5.234 -0.494 2.74 0 0 Z " fill="#DBDBDC" transform="translate(512,272)"/>
</svg>