<svg xml:space="preserve" style="max-height: 500px" viewBox="0 0 498.47999999999996 495.58900000000006" y="0px" x="0px" version="1.1" xmlns:xlink="http://www.w3.org/1999/xlink" xmlns="http://www.w3.org/2000/svg" width="498.47999999999996" height="495.58900000000006"><g><path d="M496,263.589v-48c0-13.393-14.159-24.35-43.251-33.452c-8.469-14.079-21.321-25.453-37.22-32.078l-31.576-13.157   c-12.884-5.368-24.421-13.094-34.297-22.97L344,108.275l-5.657,5.658c-9.872,9.873-21.412,17.602-34.298,22.971l-26.422,11.009   c-8.779-4.82-16.815-10.829-23.966-17.98l-5.663-5.651l-5.657,5.657c-7.149,7.149-15.184,13.156-23.961,17.974l-26.421-11.009   c-12.887-5.369-24.426-13.098-34.298-22.971l-5.663-5.651l-5.657,5.657c-9.87,9.87-21.407,17.596-34.291,22.964l-28.58,11.908   C81.263,146.131,80,142.749,80,139.2c0-7.437,5.324-13.721,12.659-14.944l14.969-2.495C119.432,119.794,128,109.68,128,97.713   c0-9.294-5.164-17.65-13.477-21.806l-14.377-7.189C97.588,67.439,96,64.869,96,62.01c0-2.003,0.78-3.887,2.197-5.304l3.46-3.46   L90.343,41.933l-3.46,3.46C82.444,49.831,80,55.732,80,62.01c0,8.959,4.978,17.013,12.991,21.019l14.377,7.189   c2.857,1.428,4.632,4.3,4.632,7.495c0,4.114-2.945,7.59-7.002,8.267l-14.969,2.495C74.947,110.988,64,123.91,64,139.2   c0,6.045,1.771,11.863,4.949,16.818c-10.633,6.641-19.386,15.625-25.699,26.12C14.159,191.24,0,202.196,0,215.589v48   c0,6.857,3.744,13.098,11.281,18.775C3.961,292.816,0,305.246,0,318.217v121.373c0,17.792,25.097,31.46,76.726,41.786   c45.831,9.167,106.657,14.214,171.274,14.214s125.444-5.048,171.274-14.214C470.903,471.049,496,457.381,496,439.589V318.217   c0-12.971-3.961-25.401-11.281-35.853C492.256,276.688,496,270.446,496,263.589z M416.137,289.686   c-44.829,8.966-104.541,13.903-168.137,13.903s-123.308-4.938-168.137-13.903C27.473,279.208,16,267.295,16,263.589v-26.044   c12.626,7.671,32.782,14.241,60.726,19.83c45.831,9.167,106.657,14.214,171.274,14.214s125.444-5.048,171.274-14.214   c27.944-5.589,48.099-12.159,60.726-19.83v26.044C480,267.295,468.527,279.208,416.137,289.686z M480,348.276L353.594,474.682   c-8.972,0.889-18.217,1.661-27.687,2.314L480,322.903V348.276z M480,370.903v41.373l-20.687-20.687L480,370.903z M187.145,318.048   l49.542,49.542L224,380.276l-52.687-52.687l9.867-9.867C183.16,317.836,185.148,317.944,187.145,318.048z M248,356.276   l-37.257-37.257c12.221,0.376,24.666,0.571,37.257,0.571s25.036-0.194,37.257-0.571L248,356.276z M160,338.903l52.687,52.687   L160,444.276l-52.687-52.687L160,338.903z M96,402.903l52.687,52.687L136,468.276l-52.687-52.687L96,402.903z M308.855,318.048   c9.223-0.477,18.278-1.061,27.124-1.751L174.956,477.32c-8.021-0.514-15.893-1.111-23.58-1.793L308.855,318.048z M336,444.276   l-52.687-52.687L336,338.903l52.687,52.687L336,444.276z M272,402.903l52.687,52.687L312,468.276l-52.687-52.687L272,402.903z    M400,380.276l-52.687-52.687L360,314.903l52.687,52.687L400,380.276z M480,215.589c0,2.087-3.639,6.776-16.173,12.347   c0.113-1.72,0.173-3.445,0.173-5.17c0-7.083-0.943-13.999-2.725-20.609C479.732,209.794,480,215.519,480,215.589z M310.199,151.674   c12.428-5.179,23.768-12.265,33.801-21.113c10.032,8.848,21.371,15.933,33.799,21.112l31.576,13.157   C432.839,174.605,448,197.347,448,222.766c0,3.8-0.351,7.595-1.036,11.331c-8.227,2.524-18.368,5.097-30.827,7.589   c-14.789,2.958-31.206,5.474-48.84,7.522c0.462-3.457,0.703-6.944,0.703-10.442c0-31.898-19.026-60.438-48.471-72.707   l-21.928-9.137L310.199,151.674z M248,146.56c10.033,8.848,21.373,15.935,33.802,21.114l31.573,13.155   C336.839,190.605,352,213.347,352,238.766c0,4.098-0.41,8.179-1.204,12.189c-31.656,3.032-66.594,4.634-102.796,4.634   s-71.14-1.602-102.796-4.634c-0.794-4.01-1.204-8.09-1.204-12.189c0-25.419,15.161-48.161,38.625-57.937l31.576-13.157   C226.627,162.494,237.965,155.41,248,146.56z M86.625,164.829l31.576-13.157c12.427-5.178,23.764-12.262,33.799-21.112   c10.033,8.848,21.374,15.935,33.802,21.114l12.597,5.249l-21.929,9.137C147.026,178.329,128,206.868,128,238.766   c0,3.498,0.241,6.985,0.703,10.442c-17.634-2.048-34.051-4.565-48.84-7.522c-12.459-2.492-22.6-5.065-30.827-7.589   c-0.685-3.736-1.036-7.53-1.036-11.331C48,197.347,63.161,174.605,86.625,164.829z M34.725,202.158   C32.943,208.768,32,215.683,32,222.766c0,1.725,0.06,3.449,0.173,5.17C19.639,222.366,16,217.676,16,215.589   C16,215.519,16.268,209.794,34.725,202.158z M76.726,305.375c12.242,2.449,25.563,4.6,39.732,6.443L72,356.276l-53.415-53.415   c1.554-4.463,3.799-8.67,6.659-12.498C37.707,296.008,54.819,300.994,76.726,305.375z M48,380.276l-32-32v-25.373l44.687,44.687   L48,380.276z M36.687,391.589L16,412.276v-41.373L36.687,391.589z M16,439.589v-4.687l120.721-120.721   c7.57,0.786,15.33,1.492,23.261,2.112L26.898,449.378C18.587,444.954,16,441.348,16,439.589z M42.824,456.079L72,426.903   l44.833,44.833c-13.166-1.746-25.553-3.766-36.97-6.05C64.063,462.526,51.989,459.235,42.824,456.079z M196.426,478.477   L248,426.903l51.574,51.574c-16.741,0.734-34.008,1.113-51.574,1.113S213.168,479.211,196.426,478.477z M416.137,465.686   c-11.417,2.283-23.804,4.304-36.97,6.05L424,426.903l29.176,29.176C444.011,459.235,431.937,462.526,416.137,465.686z    M469.102,449.378l-33.789-33.789L448,402.903l32,32v4.687C480,441.348,477.413,444.954,469.102,449.378z M477.415,302.861   L424,356.276l-44.458-44.458c14.169-1.843,27.49-3.995,39.732-6.443c21.907-4.381,39.019-9.367,51.481-15.012   C473.616,294.191,475.861,298.398,477.415,302.861z"/><rect height="32" width="16" y="191.589" x="240"/><rect height="16" width="33.941" transform="matrix(0.7071 -0.7071 0.7071 0.7071 -76.2092 207.1934)" y="187.59" x="195.029"/><rect height="33.941" width="16" transform="matrix(0.7071 -0.7071 0.7071 0.7071 -55.1209 258.1051)" y="178.619" x="276"/><path d="M416,48.49c0,3.06-0.897,6.023-2.594,8.569l-9.582,14.373C401.322,75.184,400,79.55,400,84.06   c0,10.466,7.091,19.548,17.245,22.087l7.818,1.955c4.084,1.021,6.937,4.674,6.937,8.884c0,3.491-1.939,6.629-5.062,8.191   l-6.516,3.258l7.155,14.311l6.516-3.258c8.578-4.289,13.907-12.911,13.907-22.501c0-11.564-7.836-21.601-19.056-24.406   l-7.818-1.955C418.108,89.87,416,87.171,416,84.06c0-1.34,0.393-2.638,1.136-3.753l9.583-14.373   C430.174,60.751,432,54.719,432,48.49c0-13.558-8.642-25.547-21.503-29.834L402.53,16l-5.06,15.179l7.967,2.656   C411.755,35.94,416,41.83,416,48.49z"/><path d="M206.627,63.589H208c0,17.645,14.355,32,32,32v-16c-8.822,0-16-7.178-16-16v-16h-17.373   c-8.065,0-14.627-6.562-14.627-14.627c0-3.907,1.521-7.581,4.284-10.343l9.373-9.373L194.343,1.933l-9.373,9.373   C179.186,17.09,176,24.781,176,32.962C176,49.85,189.739,63.589,206.627,63.589z"/><path d="M272,46.217c0,3.907-1.521,7.581-4.284,10.343l-8.273,8.273l19.763,13.175C284.712,81.679,288,87.822,288,94.44   c0,7.529-4.183,14.297-10.917,17.664l-0.661,0.331l7.155,14.311l0.661-0.331C296.428,120.32,304,108.068,304,94.44   c0-11.98-5.951-23.1-15.919-29.745l-4.332-2.888c2.771-4.671,4.25-10.018,4.25-15.591c0-16.888-13.739-30.627-30.627-30.627H256v16   h1.373C265.438,31.589,272,38.151,272,46.217z"/><path d="M144,26.856c0,1.512-0.443,2.976-1.282,4.233l-9.654,14.482C129.751,50.541,128,56.324,128,62.296   c0,13.86,9.391,25.888,22.837,29.249l15.223,3.806l3.881-15.522l-15.223-3.806C148.407,74.445,144,68.8,144,62.295   c0-2.802,0.822-5.516,2.376-7.849l9.654-14.482C158.627,36.07,160,31.537,160,26.856c0-10.188-6.494-19.197-16.159-22.419L130.53,0   l-5.06,15.179l13.311,4.437C141.903,20.656,144,23.566,144,26.856z"/><path d="M334.332,51.699l7.78,3.89c6.1,3.05,9.889,9.181,9.889,16s-3.789,12.95-9.89,16l-1.689,0.845l7.157,14.31l1.688-0.844   C360.822,96.123,368,84.508,368,71.589s-7.178-24.534-18.733-30.311l-7.78-3.89C338.103,35.696,336,32.294,336,28.51   c0-4.28,2.728-8.064,6.788-9.417l11.742-3.914L349.47,0l-11.742,3.914C327.125,7.448,320,17.333,320,28.51   C320,38.394,325.492,47.279,334.332,51.699z"/></g><text font-family="'Helvetica Neue', Helvetica, Arial-Unicode, Arial, Sans-serif" font-weight="bold" font-size="5px" fill="#000000" y="510.589" x="0">Created by Eucalyp</text><text font-family="'Helvetica Neue', Helvetica, Arial-Unicode, Arial, Sans-serif" font-weight="bold" font-size="5px" fill="#000000" y="515.5889999999999" x="0">from the Noun Project</text></svg>