<svg y="0px" x="0px" viewBox="2.75 9.75 96 81" data-name="Layer 4" xmlns="http://www.w3.org/2000/svg" style="max-height: 500px" width="96" height="81"><path d="M50.11,67.31c8.1,0,29.62,0,29.62-16.91,0-8.82-5.93-16.9-15.5-21.09a12.5,12.5,0,0,1-4.16-3.1,3.72,3.72,0,0,0-.33-.45l-.1-.12a5.35,5.35,0,0,0-4-1.84,5.26,5.26,0,0,0-2.88.85,5.3,5.3,0,0,0-5.76,0,5.32,5.32,0,0,0-7.61,2,7.86,7.86,0,0,1-3.43,2.66l-.17.07c-9.42,4.21-15.28,12.26-15.28,21C20.49,67.31,42,67.31,50.11,67.31ZM37.7,33.89a12.26,12.26,0,0,0,6.06-5.05.41.41,0,0,1,.33-.16.44.44,0,0,1,.44.44,2.45,2.45,0,0,0,4.89,0,.44.44,0,0,1,.44-.44.44.44,0,0,1,.44.44,2.44,2.44,0,1,0,4.88,0,.44.44,0,0,1,.44-.44.44.44,0,0,1,.3.12l.13.19.05.06.12.16a16.84,16.84,0,0,0,6.06,4.57C70,37.18,74.85,43.55,74.85,50.4c0,8.43-7.4,12-24.74,12s-24.73-3.6-24.73-12C25.38,43.64,30.1,37.32,37.7,33.89Z"/><path d="M39.05,44.89a1.61,1.61,0,0,0,.48-.08,13.66,13.66,0,0,0,8.63-9.53,1.47,1.47,0,0,0-2.87-.61A10.69,10.69,0,0,1,38.57,42a1.47,1.47,0,0,0,.48,2.85Z"/><path d="M53.24,35.7s4.89,3.33,4.35,7.82a1.47,1.47,0,0,0,1.28,1.63h.18a1.47,1.47,0,0,0,1.45-1.29c.76-6.29-5.37-10.43-5.64-10.61a1.46,1.46,0,0,0-1.62,2.44Z"/><path d="M90.62,56.58l-5.8-2.38L83,58.72,88.41,61,51.62,79.45a3.68,3.68,0,0,1-2.84,0L11.68,60.94l5.55-2.21-1.81-4.54-6,2.39A4.92,4.92,0,0,0,6.18,61a4.23,4.23,0,0,0,2.58,4l37.9,18.9.11.05a8.58,8.58,0,0,0,6.86,0L91.33,65a4.29,4.29,0,0,0,2.6-4.14A4.77,4.77,0,0,0,90.62,56.58Z"/><path d="M58.05,47a1.48,1.48,0,0,0-1.86.93,2.24,2.24,0,0,1-.56.8,1.46,1.46,0,0,0,.94,2.59,1.43,1.43,0,0,0,.93-.34A5,5,0,0,0,59,48.81,1.47,1.47,0,0,0,58.05,47Z"/><path d="M20.64,24.3a5.14,5.14,0,0,0,2.07,3.38,5.07,5.07,0,0,0,3,1,4.43,4.43,0,0,0,.81-.07,1.94,1.94,0,0,0,1.63-2.23A2,2,0,0,0,26,24.75a1.26,1.26,0,0,1-1-2.24,2,2,0,0,0,.54-2.42,1.23,1.23,0,0,1-.12-.37,1.27,1.27,0,0,1,1.05-1.45,1.28,1.28,0,0,1,1.34.7,2,2,0,0,0,3.13.54,1.21,1.21,0,0,1,.68-.35,1.25,1.25,0,0,1,.94.23,1.23,1.23,0,0,1,.51.83,1.28,1.28,0,0,1-.52,1.23,2,2,0,1,0,2.25,3.19A5.18,5.18,0,0,0,31,15.3a5.78,5.78,0,0,0-1,.27,5.17,5.17,0,0,0-8.45,4.75l0,.16A5.16,5.16,0,0,0,20.64,24.3Z"/><path d="M29.29,24a1.46,1.46,0,0,0-.53,2l1.47,2.55a1.47,1.47,0,0,0,1.27.73,1.39,1.39,0,0,0,.73-.2,1.47,1.47,0,0,0,.54-2L31.3,24.54A1.47,1.47,0,0,0,29.29,24Z"/><path d="M70,28.19a2,2,0,0,0,.44-2.73.93.93,0,0,1,.21-1.31,1,1,0,0,1,1-.09A2,2,0,0,0,74,23.44a.8.8,0,0,1,.21-.2.94.94,0,0,1,.7-.17.91.91,0,0,1,.61.38,1,1,0,0,1,0,1.12,1.93,1.93,0,0,0-.31,1.75,2,2,0,0,0,1.24,1.28,1,1,0,0,1,.47.33.95.95,0,0,1-1.21,1.39,2,2,0,1,0-1.82,3.45,4.87,4.87,0,0,0,2.27.57A4.77,4.77,0,0,0,79,32.41,4.84,4.84,0,0,0,80,25.65a4.44,4.44,0,0,0-.56-.65,4.85,4.85,0,0,0-7.59-4.93l-.06,0a4.84,4.84,0,0,0-4.58,7.64A2,2,0,0,0,70,28.19Z"/><text font-family="'Helvetica Neue', Helvetica, Arial-Unicode, Arial, Sans-serif" font-weight="bold" font-size="5px" fill="#000000" y="115" x="0">Created by Worakamon Saykajarn</text><text font-family="'Helvetica Neue', Helvetica, Arial-Unicode, Arial, Sans-serif" font-weight="bold" font-size="5px" fill="#000000" y="120" x="0">from the Noun Project</text></svg>